HIERARCHY
ROOT Spine
{
    OFFSET 0.0 0.0 -0.0
    CHANNELS 6 Xposition Yposition Zposition Zrotation Xrotation Yrotation
    JOINT ShoulderCenter
    {
        OFFSET 0.0 30.4871826171875 0.0
        CHANNELS 3 Zrotation Xrotation Yrotation
        JOINT LeftShoulder
        {
            OFFSET 19.478282928466797 0.0 0.0
            CHANNELS 3 Zrotation Xrotation Yrotation
            JOINT LeftElbow
            {
                OFFSET 28.739818572998047 0.0 0.0
                CHANNELS 3 Zrotation Xrotation Yrotation
                JOINT LeftHand
                {
                    OFFSET 29.18942642211914 0.0 0.0
                    CHANNELS 3 Zrotation Xrotation Yrotation
                    End Site
                    {
                        OFFSET 11.67577075958252 0.0 0.0
                    }
                }
            }
        }
        JOINT RightShoulder
        {
            OFFSET -19.478282928466797 0.0 0.0
            CHANNELS 3 Zrotation Xrotation Yrotation
            JOINT RightElbow
            {
                OFFSET -28.739818572998047 0.0 0.0
                CHANNELS 3 Zrotation Xrotation Yrotation
                JOINT RightHand
                {
                    OFFSET -29.18942642211914 0.0 0.0
                    CHANNELS 3 Zrotation Xrotation Yrotation
                    End Site
                    {
                        OFFSET -11.67577075958252 0.0 0.0
                    }
                }
            }
        }
        End Site
        {
            OFFSET 0.0 12.194870948791504 0.0
        }
    }
    JOINT LeftHip
    {
        OFFSET 15.479182015403266 -15.479182015403266 0.0
        CHANNELS 3 Zrotation Xrotation Yrotation
        JOINT LeftKnee
        {
            OFFSET 0.0 -38.83317565917969 0.0
            CHANNELS 3 Zrotation Xrotation Yrotation
            JOINT LeftFoot
            {
                OFFSET 0.0 -44.34248733520508 0.0
                CHANNELS 3 Zrotation Xrotation Yrotation
                End Site
                {
                    OFFSET 0.0 0.0 17.736997604370117
                }
            }
        }
    }
    JOINT RightHip
    {
        OFFSET -15.479182015403266 -15.479182015403266 0.0
        CHANNELS 3 Zrotation Xrotation Yrotation
        JOINT RightKnee
        {
            OFFSET 0.0 -38.83317565917969 0.0
            CHANNELS 3 Zrotation Xrotation Yrotation
            JOINT RightFoot
            {
                OFFSET 0.0 -44.34248733520508 0.0
                CHANNELS 3 Zrotation Xrotation Yrotation
                End Site
                {
                    OFFSET 0.0 0.0 17.736997604370117
                }
            }
        }
    }
}
MOTION
Frames: 10
Frame Time: 0.03333333333333333
72.5999984741211 3.700000047683716 -24.100000381469727 2.283002461038239 -8.867918005814474 -163.4715048027795 7.92794899834793e-08 -2.014146325030818e-08 -7.426116337523798 118.25041413286002 5.201420448624054 -72.88174497250637 5.263537184484663e-06 2.037412459304864e-06 45.46043798516307 -3.1805546814635168e-15 0.0 0.0 -109.81162389418424 9.158019537067547 73.9174431825233 -6.424262363087512e-07 -1.732855151757867e-07 -45.47049047762415 9.541664044390553e-15 -1.5902773407317588e-15 1.3241718894150476e-31 9.905393057651528 14.637250287688639 -71.79114466211048 -2.3247933483925127 4.118874299164572 -7.510590077263493 1.5902773407317582e-15 -9.379550883356588e-32 -6.758678698109972e-15 3.6222476726624953 -12.093976871841454 -3.635936409335818 -2.1703785596806933 9.630174469868702 31.62662812777456 0.0 0.0 -8.696829207126804e-15
72.5999984741211 3.799999952316284 -24.0 2.4730229465344022 -9.237649836158559 -163.75901368815389 -3.5474921384958606e-10 1.9272296355902764e-08 -7.513669871458044 113.59242902900284 4.660372697243331 -72.45338311220301 8.545757296398375e-07 4.5960267795469135e-06 50.51766117380986 -8.348956038841732e-15 -3.1805546814635176e-15 6.3611093629270335e-15 -109.12577409723232 8.544999676756767 73.87667259734103 -2.26838219512748e-06 1.1844556744965764e-06 -46.085014170852915 5.565970692561154e-15 0.0 0.0 9.856007245465339 14.230818525565184 -71.60022722638497 -2.3610134298175662 4.297029269312399 -7.763186858633754 -1.5902773407317584e-15 -1.1586504032381667e-31 8.348956038841732e-15 3.772698022838394 -12.480314351742226 -3.1005257331547176 -2.1681421249843558 9.505563709782052 31.738899587558194 1.9310840053969444e-32 -7.951386703658792e-16 2.782985346280577e-15
72.5 3.799999952316284 -23.899999618530273 2.099901452008975 -10.01228163866331 -164.4009200704911 3.766938100266299e-08 6.801763613435289e-07 -7.168876535916899 112.54742562642177 5.323364062024684 -72.63466490909134 2.279707639772239e-06 -1.3335456161210905e-06 56.55956949459017 -3.975693351829397e-16 0.0 0.0 -108.68900145407491 8.426081281750761 73.9031200228367 8.828639632980322e-07 -2.551207220237746e-06 -47.41510626975096 7.95138670365879e-15 -1.5902773407317582e-15 1.1034765745125397e-31 9.085554910716555 13.561884836026982 -70.74174020449534 -2.62307727415487 4.3371589046273336 -7.786447797163994 6.620859447075238e-32 -3.1805546814635176e-15 2.3854160110976384e-15 3.1251396556684035 -13.333262603498504 -4.404823860204049 -2.185924818095758 9.501946034804208 31.75316958142093 4.6552917987247765e-33 -7.951386703658792e-16 6.708982531212105e-16
72.39999389648438 3.799999952316284 -23.700000762939453 2.0998871785522915 -10.93500953801056 -164.29694948021353 -4.149938520024044e-08 -2.6337940414027504e-07 -7.7287416683651164 111.66091351441628 5.86542288419364 -72.96805196341226 6.356244560838729e-07 -1.4597673228884573e-06 61.54546665877093 2.9817700138720468e-15 8.276074308844047e-32 3.1805546814635164e-15 -110.49442680699835 9.373974994578045 74.02026914408208 -5.524874216859197e-06 2.5566927573360395e-06 -49.00606396958022 -7.951386703658792e-16 0.0 0.0 8.973981711692627 12.626138464275181 -70.99270326112945 -2.430177443483041 4.14512774827666 -7.633705937979715 0.0 0.0 -6.3611093629270335e-15 2.794374711511115 -14.517413095880991 -6.4550788813902065 -2.504155013928069 9.584899136165093 32.22984220861227 -6.896728590703373e-33 7.951386703658792e-16 9.93923337957349e-16
72.29999542236328 3.799999952316284 -23.600000381469727 1.9155179757802518 -11.52459140140686 -165.4399604913141 7.737719498007598e-08 1.02504217260272e-06 -7.440125330149535 110.92917592877349 6.046957076205567 -73.11181731293769 -2.7386073131458385e-07 1.657721579308582e-06 62.989797954002604 -2.5842006786891076e-15 0.0 0.0 -111.06674150053274 8.894497794979246 73.9120833002676 1.161117596217193e-07 3.0602706617817906e-06 -50.04365100408528 -7.951386703658792e-15 2.2069531490250793e-31 -3.1805546814635168e-15 8.500776625229399 12.657858375326205 -70.95515073688425 -2.0758774207702846 3.6236582536437814 -6.736207624119005 1.5902773407317584e-15 -3.862168010793889e-32 -2.782985346280577e-15 2.571055037205414 -15.08453799088374 -7.532865534013531 -2.6095998189532232 9.189408251400845 31.198351596232605 3.975693351829396e-16 7.951386703658792e-16 1.3169484227934873e-15
72.29999542236328 3.9000000953674316 -23.399999618530273 1.72987190199285 -12.299241395222822 -165.37711264143812 7.090054113637588e-09 -4.5714330199776213e-07 -7.641279274919442 110.14813223888004 5.3863826051067525 -72.30488165411884 -3.1703667783159697e-06 -1.97134036855049e-06 59.57720279371399 -2.7829853462805768e-15 0.0 0.0 -111.05833404138428 9.507157940037848 73.5238784611848 -2.400382645887272e-06 2.906394696644881e-06 -50.57935750509736 -1.5902773407317584e-15 0.0 0.0 7.926106392366121 11.795192017213228 -70.12666938155618 -2.010685661193319 3.8325116186729886 -7.230258880773737 -1.5902773407317582e-15 -9.931289170612858e-32 7.156248033292912e-15 2.005375671099947 -15.90864522486959 -9.032291581147051 -2.4407937162117763 8.946558144935604 30.638729057337255 -1.987846675914698e-16 -7.951386703658794e-16 5.168401357378216e-15
72.29999542236328 3.9000000953674316 -23.19999885559082 1.7298717850133793 -12.665644821977903 -165.37705239786234 -1.4311876091324359e-08 -9.615515676915876e-07 -8.067202660701197 109.02345763404377 3.8263520607395622 -71.8489408149802 -1.7601941126582188e-06 6.532534630356147e-07 53.35750376307452 4.770832022195275e-15 0.0 0.0 -109.8683775778979 8.704145239056137 72.79777539341998 -4.850005490569982e-06 4.356453018315886e-06 -50.587231156116104 3.1805546814635168e-15 0.0 0.0 7.9697064097469275 11.4051158265316 -69.75153522152954 -1.728163100305224 3.6487058173040996 -7.130203832350167 0.0 0.0 1.1927080055488186e-15 1.8432428049454321 -16.547583742164193 -11.768617964059256 -2.8676820555877516 8.844960792684413 31.203449469811105 1.9878466759146977e-16 -8.620910738379216e-34 -4.969616689786744e-16
72.29999542236328 3.9000000953674316 -23.100000381469727 1.5377635425384049 -12.666817751015744 -165.9950554274626 -1.562625490206864e-07 -4.563772647290022e-07 -8.142071755642387 105.75154872475241 1.8073765978152916 -71.42249829225135 1.776206666883164e-06 -1.598952710540518e-06 45.718080034583615 -3.975693351829397e-15 0.0 0.0 -109.69533448443873 8.058247269963923 72.36232581876499 2.1889099105633104e-06 4.714569016759136e-09 -50.08228180966138 7.156248033292912e-15 -1.590277340731758e-15 9.931289170612858e-32 7.434589823748131 11.794406924371067 -68.06936838045576 -1.1348671725922614 3.490758520076807 -6.928648703947319 0.0 0.0 -6.758678698109972e-15 1.7614180682300862 -16.769091950807216 -13.926223674167376 -3.4297006558160716 8.85460566818987 32.308464103193536 1.987846675914698e-16 7.951386703658792e-16 9.442271710594815e-16
72.29999542236328 4.0 -23.0 1.1534475680185432 -12.302258707274756 -166.43343692809913 -2.0450439869942415e-07 -6.459906675719464e-07 -8.233959729091373 106.74034302834285 1.3769556965742291 -72.90869368397351 1.4385422805720116e-06 3.9444394493842185e-06 44.722449822937264 1.5902773407317584e-15 -3.1805546814635168e-15 3.1805546814635168e-15 -109.9167063568731 7.524320476689519 72.3585190367252 -2.2661560514040757e-06 1.2192926491217504e-06 -48.78230141139445 3.975693351829397e-15 1.5902773407317592e-15 6.361109362927035e-15 7.038430492377393 12.705977191522484 -67.4952947812402 -0.09577233483742736 3.088810402189836 -6.3626891839206605 -1.5902773407317584e-15 3.1805546814635168e-15 4.4139062980501586e-32 1.325892766366333 -16.699889214681406 -16.854765441453694 -3.663413143986117 9.110571689977101 33.7403352852433 0.0 0.0 8.945310041616142e-16
72.29999542236328 4.099999904632568 -23.0 1.1534476066953059 -11.750616509095106 -166.79967730718676 1.6094986475144437e-09 4.495265723277082e-07 -8.553161246605185 104.70125585156788 0.6598136158001339 -72.58436312059435 -3.279065890150063e-06 -7.073259760725161e-07 42.39276843876856 -4.770832022195275e-15 -1.3241718894150476e-31 3.1805546814635168e-15 -111.02575890225906 7.732360775241865 73.28144433358429 -1.0416086045372906e-06 5.150183641796003e-06 -49.12831394316581 2.3854160110976376e-15 3.1805546814635168e-15 -6.620859447075238e-32 6.988844330236692 14.062944336588012 -66.80272573633316 1.2030695332322972 2.4603245138940504 -5.220639443161658 1.5902773407317582e-15 -4.965644585306429e-32 -3.578124016646456e-15 1.0858323162271202 -16.2138571077832 -19.23403173048009 -3.5167508174167534 9.060886612880436 34.6999048642291 0.0 0.0 -9.069550458860809e-16
